<svg width="24" height="25" viewBox="0 0 24 25" fill="none" xmlns="http://www.w3.org/2000/svg">
<path d="M8 11.5C10.2091 11.5 12 9.70914 12 7.5C12 5.29086 10.2091 3.5 8 3.5C5.79086 3.5 4 5.29086 4 7.5C4 9.70914 5.79086 11.5 8 11.5Z" stroke="white" stroke-width="2" stroke-linecap="round" stroke-linejoin="round"/>
<path d="M23 22.5V21.1667C23 20.4594 22.6839 19.7811 22.1213 19.281C21.5587 18.781 20.7956 18.5 20 18.5H14C13.2044 18.5 12.4413 18.781 11.8787 19.281C11.3161 19.7811 11 20.4594 11 21.1667V22.5" stroke="white" stroke-width="2" stroke-linecap="round" stroke-linejoin="round"/>
<path d="M11.5 15.5H4.5C3.57174 15.5 2.6815 15.8512 2.02513 16.4763C1.36875 17.1014 1 17.9493 1 18.8333V20.5" stroke="white" stroke-width="2" stroke-linecap="round" stroke-linejoin="round"/>
<path d="M17 14.5C18.6569 14.5 20 13.1569 20 11.5C20 9.84315 18.6569 8.5 17 8.5C15.3431 8.5 14 9.84315 14 11.5C14 13.1569 15.3431 14.5 17 14.5Z" stroke="white" stroke-width="2" stroke-linecap="round" stroke-linejoin="round"/>
</svg>
