<svg width="25" height="25" viewBox="0 0 25 25" fill="none" xmlns="http://www.w3.org/2000/svg">
<path d="M1.19238 4.15343V10.4884M1.19238 10.4884H7.19238M1.19238 10.4884L5.83238 5.885C6.90713 4.74968 8.23676 3.92031 9.69719 3.47429C11.1576 3.02827 12.7013 2.98014 14.1841 3.33438C15.6669 3.68862 17.0406 4.43369 18.1769 5.50006C19.3133 6.56644 20.1752 7.91936 20.6824 9.4326M23.1924 21.0468V14.7118M23.1924 14.7118H17.1924M23.1924 14.7118L18.5524 19.3152C17.4776 20.4505 16.148 21.2799 14.6876 21.7259C13.2271 22.1719 11.6835 22.2201 10.2007 21.8658C8.71785 21.5116 7.34418 20.7665 6.20785 19.7001C5.07152 18.6338 4.20955 17.2808 3.70238 15.7676" stroke="white" stroke-width="2" stroke-linecap="round" stroke-linejoin="round"/>
</svg>
