<svg width="26" height="27" viewBox="0 0 26 27" fill="none" xmlns="http://www.w3.org/2000/svg">
<path d="M9 6.3V8.7C9 9.14183 8.64183 9.5 8.2 9.5H5.8C5.35817 9.5 5 9.14183 5 8.7V6.3C5 5.85817 5.35817 5.5 5.8 5.5H8.2C8.64183 5.5 9 5.85817 9 6.3Z" stroke="white" stroke-width="2" stroke-linecap="round" stroke-linejoin="round"/>
<path d="M5 13.5H9" stroke="white" stroke-width="2" stroke-linecap="round" stroke-linejoin="round"/>
<path d="M17 13.5V17.5" stroke="white" stroke-width="2" stroke-linecap="round" stroke-linejoin="round"/>
<path d="M13 21.5H17" stroke="white" stroke-width="2" stroke-linecap="round" stroke-linejoin="round"/>
<path d="M13 13.516L13.0144 13.5" stroke="white" stroke-width="2" stroke-linecap="round" stroke-linejoin="round"/>
<path d="M21 13.516L21.0144 13.5" stroke="white" stroke-width="2" stroke-linecap="round" stroke-linejoin="round"/>
<path d="M13 17.516L13.0144 17.5" stroke="white" stroke-width="2" stroke-linecap="round" stroke-linejoin="round"/>
<path d="M21 17.516L21.0144 17.5" stroke="white" stroke-width="2" stroke-linecap="round" stroke-linejoin="round"/>
<path d="M21 21.516L21.0144 21.5" stroke="white" stroke-width="2" stroke-linecap="round" stroke-linejoin="round"/>
<path d="M13 9.51599L13.0144 9.5" stroke="white" stroke-width="2" stroke-linecap="round" stroke-linejoin="round"/>
<path d="M13 5.51599L13.0144 5.5" stroke="white" stroke-width="2" stroke-linecap="round" stroke-linejoin="round"/>
<path d="M9 18.3V20.7C9 21.1419 8.64183 21.5 8.2 21.5H5.8C5.35817 21.5 5 21.1419 5 20.7V18.3C5 17.8581 5.35817 17.5 5.8 17.5H8.2C8.64183 17.5 9 17.8581 9 18.3Z" stroke="white" stroke-width="2" stroke-linecap="round" stroke-linejoin="round"/>
<path d="M21 6.3V8.7C21 9.14183 20.6419 9.5 20.2 9.5H17.8C17.3581 9.5 17 9.14183 17 8.7V6.3C17 5.85817 17.3581 5.5 17.8 5.5H20.2C20.6419 5.5 21 5.85817 21 6.3Z" stroke="white" stroke-width="2" stroke-linecap="round" stroke-linejoin="round"/>
<path d="M21 1.5H25V5.5" stroke="white" stroke-width="2" stroke-linecap="round" stroke-linejoin="round"/>
<path d="M21 25.5H25V21.5" stroke="white" stroke-width="2" stroke-linecap="round" stroke-linejoin="round"/>
<path d="M5 1.5H1V5.5" stroke="white" stroke-width="2" stroke-linecap="round" stroke-linejoin="round"/>
<path d="M5 25.5H1V21.5" stroke="white" stroke-width="2" stroke-linecap="round" stroke-linejoin="round"/>
</svg>
