<svg width="24" height="25" viewBox="0 0 24 25" fill="none" xmlns="http://www.w3.org/2000/svg">
<path d="M15.8462 21.7336C14.6622 22.2273 13.3629 22.5 12 22.5C6.47715 22.5 2 18.0228 2 12.5C2 6.97715 6.47715 2.5 12 2.5C17.5228 2.5 22 6.97715 22 12.5C22 18.6538 17.3846 17.8846 17.3846 14.8077V8.5M17.3846 12.5C17.3846 15.4738 14.9738 17.8846 12 17.8846C9.02616 17.8846 6.61538 15.4738 6.61538 12.5C6.61538 9.52616 9.02616 7.11538 12 7.11538C14.9738 7.11538 17.3846 9.52616 17.3846 12.5Z" stroke="white" stroke-width="2" stroke-linecap="round" stroke-linejoin="round"/>
</svg>
