<svg width="24" height="25" viewBox="0 0 24 25" fill="none" xmlns="http://www.w3.org/2000/svg">
<path d="M18.3947 21.5V19.5C18.3947 18.4391 17.964 17.4217 17.1974 16.6716C16.4308 15.9214 15.3911 15.5 14.307 15.5H7.15359C6.06947 15.5 5.02976 15.9214 4.26317 16.6716C3.49658 17.4217 3.06592 18.4391 3.06592 19.5V21.5" stroke="white" stroke-width="2" stroke-linecap="round" stroke-linejoin="round"/>
<path d="M10.7302 11.5C12.9878 11.5 14.8179 9.70914 14.8179 7.5C14.8179 5.29086 12.9878 3.5 10.7302 3.5C8.47269 3.5 6.64258 5.29086 6.64258 7.5C6.64258 9.70914 8.47269 11.5 10.7302 11.5Z" stroke="white" stroke-width="2" stroke-linecap="round" stroke-linejoin="round"/>
<path d="M17.2096 11.1808V12.8616H20.6449" stroke="white" stroke-width="2" stroke-linecap="round" stroke-linejoin="round"/>
</svg>
