<svg width="24" height="25" viewBox="0 0 24 25" fill="none" xmlns="http://www.w3.org/2000/svg">
<path d="M21 20.6H3M3 10.7L10.3134 4.85C10.7921 4.46704 11.3869 4.25841 12 4.25841C12.6131 4.25841 13.2079 4.46704 13.6866 4.85L21 10.7M15.15 5.75V3.95C15.15 3.83065 15.1974 3.71619 15.2818 3.6318C15.3662 3.54741 15.4807 3.5 15.6 3.5H17.85C17.9693 3.5 18.0838 3.54741 18.1682 3.6318C18.2526 3.71619 18.3 3.83065 18.3 3.95V8.45M4.8 20.6V9.35M19.2 20.6V9.35" stroke="white" stroke-width="1.5" stroke-linecap="round"/>
<path d="M14.6998 20.6V16.1C14.6998 14.8274 14.6998 14.1911 14.3038 13.796C13.9096 13.4 13.2733 13.4 11.9998 13.4C10.7272 13.4 10.0909 13.4 9.6958 13.796C9.2998 14.1902 9.2998 14.8265 9.2998 16.1V20.6M13.7998 9.34999C13.7998 9.82738 13.6102 10.2852 13.2726 10.6228C12.935 10.9603 12.4772 11.15 11.9998 11.15C11.5224 11.15 11.0646 10.9603 10.727 10.6228C10.3894 10.2852 10.1998 9.82738 10.1998 9.34999C10.1998 8.8726 10.3894 8.41476 10.727 8.0772C11.0646 7.73963 11.5224 7.54999 11.9998 7.54999C12.4772 7.54999 12.935 7.73963 13.2726 8.0772C13.6102 8.41476 13.7998 8.8726 13.7998 9.34999Z" stroke="white" stroke-width="1.5"/>
</svg>
