<svg width="24" height="25" viewBox="0 0 24 25" fill="none" xmlns="http://www.w3.org/2000/svg">
<path d="M16.1538 9.99279V12.4892C16.1538 12.8202 16.2997 13.1377 16.5594 13.3718C16.8191 13.6059 17.1712 13.7374 17.5385 13.7374H18.2308M18.2308 13.7374C18.9652 13.7374 19.6696 13.4744 20.1889 13.0062C20.7082 12.538 21 11.9031 21 11.241V7.4964C21 7.16535 20.8541 6.84787 20.5945 6.61379C20.3348 6.3797 19.9826 6.2482 19.6154 6.2482H17.5385C17.1003 6.24782 16.6684 6.15371 16.2785 5.97359C14.9565 5.35167 13.491 5.01819 12 5C10.4996 5.01428 9.02414 5.34787 7.69385 5.97359C7.31101 6.14701 6.88991 6.24085 6.46154 6.2482H4.38462C4.01739 6.2482 3.66521 6.3797 3.40554 6.61379C3.14588 6.84787 3 7.16535 3 7.4964V11.241C3 11.9031 3.29176 12.538 3.81109 13.0062C4.33042 13.4744 5.03479 13.7374 5.76923 13.7374M18.2308 13.7374L17.8015 15.6971C17.5375 16.9093 16.8146 18.0011 15.7564 18.786C14.6982 19.5709 13.3704 20 12 20C10.6296 20 9.30185 19.5709 8.24362 18.786C7.1854 18.0011 6.46248 16.9093 6.19846 15.6971L5.76923 13.7374M5.76923 13.7374H6.46154C6.82876 13.7374 7.18094 13.6059 7.44061 13.3718C7.70028 13.1377 7.84615 12.8202 7.84615 12.4892V9.99279M11.3077 16.2338H12.6923" stroke="white" stroke-width="2" stroke-linecap="round" stroke-linejoin="round"/>
</svg>
